<?xml version="1.0" encoding="UTF-8"?>
<svg width="12px" height="12px" viewBox="0 0 12 12" version="1.1" xmlns="http://www.w3.org/2000/svg" xmlns:xlink="http://www.w3.org/1999/xlink">
    <title>Icon/add</title>
    <g id="控件" stroke="none" stroke-width="1" fill="none" fill-rule="evenodd">
        <g id="Btn/主要-icon" transform="translate(-17.000000, -10.000000)">
            <g id="add" transform="translate(16.000000, 9.000000)">
                <rect id="矩形" stroke="#979797" fill="#D8D8D8" opacity="0" x="0.5" y="0.5" width="13" height="13"></rect>
                <path d="M7.3828125,1.75 C7.44321864,1.75 7.4921875,1.79896886 7.4921875,1.859375 L7.4921875,6.5078125 L12.140625,6.5078125 C12.2010311,6.5078125 12.25,6.55678136 12.25,6.6171875 L12.25,7.3828125 C12.25,7.44321864 12.2010311,7.4921875 12.140625,7.4921875 L7.4921875,7.4921875 L7.4921875,12.140625 C7.4921875,12.2010311 7.44321864,12.25 7.3828125,12.25 L6.6171875,12.25 C6.55678136,12.25 6.5078125,12.2010311 6.5078125,12.140625 L6.5078125,7.49207812 L1.859375,7.4921875 C1.79896886,7.4921875 1.75,7.44321864 1.75,7.3828125 L1.75,6.6171875 C1.75,6.55678136 1.79896886,6.5078125 1.859375,6.5078125 L6.5078125,6.50770312 L6.5078125,1.859375 C6.5078125,1.79896886 6.55678136,1.75 6.6171875,1.75 L7.3828125,1.75 Z" id="路径" fill="#FFFFFF"></path>
            </g>
        </g>
    </g>
</svg>