<?xml version="1.0" encoding="UTF-8"?>
<svg width="128px" height="128px" viewBox="0 0 128 128" version="1.1" xmlns="http://www.w3.org/2000/svg" xmlns:xlink="http://www.w3.org/1999/xlink">
    <!-- Generator: Sketch 63 (92445) - https://sketch.com -->
    <title>arrow-left</title>
    <desc>Created with Sketch.</desc>
    <g id="arrow-left" stroke="none" stroke-width="1" fill="none" fill-rule="evenodd">
        <g>
            <rect id="矩形" fill="#000000" fill-rule="nonzero" opacity="0" x="0" y="0" width="128" height="128"></rect>
            <path d="M19.060048,66.8275952 L62.1944242,109.961941 C62.5849485,110.352465 63.2181135,110.352465 63.6086378,109.961941 L69.265492,104.305087 C69.6560163,103.914562 69.6560163,103.281397 69.265492,102.890873 L34.8745302,68.499166 L109.11147,68.5005178 C109.663755,68.5005178 110.11147,68.0528025 110.11147,67.5005178 L110.11147,60.5005178 C110.11147,59.948233 109.663755,59.5005178 109.11147,59.5005178 L34.8725302,59.499166 L69.265492,25.109127 C69.6560163,24.7186027 69.6560163,24.0854378 69.265492,23.6949135 L63.6086378,18.0380592 C63.2181135,17.6475349 62.5849485,17.6475349 62.1944242,18.0380592 L19.0601936,61.1707881 C17.4980221,62.7328109 17.497978,65.2654709 19.060048,66.8275952 Z" id="路径" fill="#646566"></path>
        </g>
    </g>
</svg>