<?xml version="1.0" encoding="UTF-8"?>
<svg width="16px" height="16px" viewBox="0 0 16 16" version="1.1" xmlns="http://www.w3.org/2000/svg" xmlns:xlink="http://www.w3.org/1999/xlink">
    <title>client</title>
    <g id="管理后台" stroke="none" stroke-width="1" fill="none" fill-rule="evenodd">
        <g id="任务配置/任务列表" transform="translate(-20.000000, -321.000000)">
            <g id="一级下拉备份-2" transform="translate(0.000000, 304.000000)">
                <g id="contacts" transform="translate(20.000000, 17.000000)">
                    <rect id="矩形" fill="#D8D8D8" opacity="0" x="0" y="0" width="16" height="16"></rect>
                    <path d="M6.37349025,1.625 C7.46776771,1.625 8.42520532,2.21088103 8.94923165,3.08607166 L8.97507042,3.13007091 L8.97507042,3.13007091 C9.00949806,3.18985522 8.98894242,3.2662291 8.92915811,3.30065674 C8.91930513,3.30633072 8.90872362,3.31063291 8.89770779,3.31344838 L8.00124999,3.54220115 C7.95216577,3.55472032 7.90037681,3.53638281 7.87011165,3.49576249 L7.84896064,3.46787055 C7.8458028,3.46379754 7.84282863,3.46001235 7.84003812,3.45651498 C7.49651371,3.02597359 6.96723052,2.75 6.37349025,2.75 C5.33795634,2.75 4.49849025,3.58946609 4.49849025,4.625 C4.49849025,5.29249428 4.84728474,5.87852324 5.37255613,6.21076931 L5.42712079,6.24388005 L5.42712079,6.24388005 L5.43788839,6.25002835 C5.48465634,6.2765396 5.5092359,6.3299839 5.49892637,6.38274564 L5.4750935,6.50821959 C5.407358,6.87589195 5.37349025,7.16481875 5.37349025,7.375 L5.37405779,7.42577386 C5.37481451,7.46251987 5.37632796,7.50505941 5.37859812,7.55339248 L5.3825714,7.63023722 C5.38584798,7.68882874 5.34792558,7.74181137 5.29140775,7.75760496 L5.27164283,7.76322145 C3.86717428,8.170498 2.82668916,9.43418353 2.75270463,10.9517244 L2.75053477,11.0042315 L2.75053477,11.0042315 C2.74825407,11.0715816 2.69299514,11.125 2.62560646,11.125 L1.74284076,11.125 C1.68240779,11.125 1.63259989,11.0795097 1.6257928,11.020903 L1.62503875,11.0041384 L1.62503875,11.0041384 C1.67237402,9.15886121 2.80050658,7.58238211 4.39992263,6.88421486 C3.77080724,6.33447763 3.37349025,5.52613799 3.37349025,4.625 C3.37349025,2.96814575 4.716636,1.625 6.37349025,1.625 Z M9.74849025,4.5 C11.4743801,4.5 12.8734903,5.89911016 12.8734903,7.625 C12.8734903,8.60892866 12.4187609,9.48664958 11.7079942,10.0594708 C13.2656924,10.7890915 14.3497226,12.3615229 14.3731044,14.1896405 L14.3734902,14.2501063 L14.3734902,14.2501063 C14.3734902,14.3191396 14.3175236,14.3751004 14.2484902,14.3751004 L13.3734867,14.3751004 C13.309384,14.3751004 13.2565516,14.3268432 13.2493312,14.2646776 L13.2484903,14.25 L13.2484903,14.25 C13.2484903,12.3170034 11.6814869,10.75 9.74849025,10.75 C7.83482359,10.75 6.27986692,12.28582 6.24895915,14.1921211 L6.24849025,14.2500982 L6.24849025,14.2500982 C6.24848915,14.3141999 6.2002391,14.3670344 6.13807488,14.3742586 L6.12349025,14.3751004 L6.12349025,14.3751004 L5.24849123,14.3751004 C5.18438854,14.3751004 5.13155525,14.3268493 5.12433191,14.2646839 L5.12349025,14.25 L5.12349025,14.25 C5.12349025,12.3961836 6.21417057,10.7971093 7.78884218,10.059466 C7.0782196,9.48664958 6.62349025,8.60892866 6.62349025,7.625 C6.62349025,5.89911016 8.02260041,4.5 9.74849025,4.5 Z M9.74849025,5.625 C8.64392075,5.625 7.74849025,6.5204305 7.74849025,7.625 C7.74849025,8.7295695 8.64392075,9.625 9.74849025,9.625 C10.8530598,9.625 11.7484903,8.7295695 11.7484903,7.625 C11.7484903,6.5204305 10.8530598,5.625 9.74849025,5.625 Z" id="形状结合" fill="#FFFFFF"></path>
                </g>
            </g>
        </g>
    </g>
</svg>