<?xml version="1.0" encoding="UTF-8"?>
<svg width="128px" height="128px" viewBox="0 0 128 128" version="1.1" xmlns="http://www.w3.org/2000/svg" xmlns:xlink="http://www.w3.org/1999/xlink">
    <title>Icon/close</title>
    <g id="Icon/close" stroke="none" stroke-width="1" fill="none" fill-rule="evenodd">
        <g id="close">
            <rect id="矩形" stroke="#979797" fill="#D8D8D8" opacity="0" x="0.5" y="0.5" width="127" height="127"></rect>
            <path d="M27.109127,20.0380592 L63.999166,56.928166 L100.890873,20.0380592 C101.281397,19.6475349 101.914562,19.6475349 102.305087,20.0380592 L107.961941,25.6949135 C108.352465,26.0854378 108.352465,26.7186027 107.961941,27.109127 L71.070166,63.999166 L107.961941,100.890873 C108.352465,101.281397 108.352465,101.914562 107.961941,102.305087 L102.305087,107.961941 C101.914562,108.352465 101.281397,108.352465 100.890873,107.961941 L63.999166,71.070166 L27.109127,107.961941 C26.7186027,108.352465 26.0854378,108.352465 25.6949135,107.961941 L20.0380592,102.305087 C19.6475349,101.914562 19.6475349,101.281397 20.0380592,100.890873 L56.928166,63.999166 L20.0380592,27.109127 C19.6475349,26.7186027 19.6475349,26.0854378 20.0380592,25.6949135 L25.6949135,20.0380592 C26.0854378,19.6475349 26.7186027,19.6475349 27.109127,20.0380592 Z" id="路径" fill="#C8C9CC" transform="translate(64.000000, 64.000000) rotate(-360.000000) translate(-64.000000, -64.000000) "></path>
        </g>
    </g>
</svg>