<?xml version="1.0" encoding="UTF-8"?>
<svg width="44px" height="44px" viewBox="0 0 44 44" version="1.1" xmlns="http://www.w3.org/2000/svg" xmlns:xlink="http://www.w3.org/1999/xlink">
    <title>cloud-upload</title>
    <g id="管理后台" stroke="none" stroke-width="1" fill="none" fill-rule="evenodd" opacity="0.900000036">
        <g id="素材库/3.1新建素材弹窗" transform="translate(-458.000000, -424.000000)">
            <g id="添加分类" transform="translate(420.000000, 120.000000)">
                <g id="编组-3备份-2" transform="translate(20.000000, 235.000000)">
                    <g id="编组-6" transform="translate(0.000000, 28.000000)">
                        <g id="cloud-upload" transform="translate(18.000000, 41.000000)">
                            <rect id="矩形" fill="#000000" fill-rule="nonzero" opacity="0" x="0" y="0" width="44" height="44"></rect>
                            <path d="M21.7292969,19.7226563 C21.8576302,19.5582292 22.0982552,19.5472674 22.2415608,19.6897708 L22.2707031,19.7226563 L27.0832031,25.815625 C27.2513672,26.0289063 27.1141513,26.3400657 26.8509394,26.3679123 L26.8125,26.3699219 L23.6285156,26.3699219 L23.6285156,36.78125 C23.6285156,36.956808 23.4951371,37.1027264 23.324709,37.1226762 L23.2847656,37.125 L20.7066406,37.125 C20.5310826,37.125 20.3851642,36.9916215 20.3652144,36.8211934 L20.3628906,36.78125 L20.3628906,26.365625 L17.1875,26.365625 C16.9126953,26.365625 16.7553445,26.0641602 16.8948315,25.8424216 L16.9167969,25.8113281 L21.7292969,19.7226563 Z M22.0085938,6.875 C27.8824219,6.875 32.896875,10.5660156 34.8648437,15.7566406 C38.5386719,16.7277344 41.25,20.0792969 41.25,24.0625 C41.25,28.7630664 37.4808264,32.5792457 32.802587,32.6550992 L32.6605469,32.65625 L30.9375,32.65625 C30.761942,32.65625 30.6160236,32.5228715 30.5960738,32.3524434 L30.59375,32.3125 L30.59375,29.734375 C30.59375,29.558817 30.7271285,29.4128986 30.8975566,29.3929488 L30.9375,29.390625 L32.6605469,29.390625 C34.0828125,29.390625 35.4191406,28.8363281 36.4246094,27.8308594 C37.4300781,26.8253906 37.984375,25.4847656 37.984375,24.0625 C37.984375,21.6872439 36.4088157,19.598831 34.1409207,18.9340029 L34.0269531,18.9019531 L32.4027344,18.4722656 L31.8097656,16.9039062 C31.4402344,15.9285156 30.9246094,15.0089844 30.2757812,14.1796875 C29.6355469,13.3589844 28.8792969,12.6371094 28.0242187,12.0355469 C26.2582031,10.79375 24.1785156,10.1363281 22.0085937,10.1363281 C19.8386719,10.1363281 17.7589844,10.79375 15.9929687,12.0355469 C15.1421875,12.6371094 14.3816406,13.3546875 13.7414062,14.1796875 C13.138923,14.9497489 12.6512934,15.7939094 12.2888386,16.6949676 L12.2074219,16.9039062 L11.6101562,18.4765625 L9.98164062,18.9019531 C8.86445312,19.1984375 7.85898437,19.8644531 7.14140625,20.7796875 C6.44101562,21.6777344 6.05429687,22.7433594 6.015625,23.8777344 C5.96835937,25.3300781 6.50546875,26.7308594 7.51523437,27.7707031 C8.49658518,28.7811618 9.8038904,29.3529905 11.1995966,29.3888312 L11.3394531,29.390625 L13.0625,29.390625 C13.238058,29.390625 13.3839764,29.5240035 13.4039262,29.6944316 L13.40625,29.734375 L13.40625,32.3125 C13.40625,32.488058 13.2728715,32.6339764 13.1024434,32.6539262 L13.0625,32.65625 L11.3394531,32.65625 C6.59570312,32.65625 2.75,28.8105469 2.75,24.0625 C2.75,20.075 5.46992187,16.7191406 9.15234375,15.7523437 C11.1203125,10.5617187 16.1347656,6.875 22.0085938,6.875 Z" id="形状" fill="#8494A6"></path>
                        </g>
                    </g>
                </g>
            </g>
        </g>
    </g>
</svg>