<?xml version="1.0" encoding="UTF-8"?>
<svg width="16px" height="16px" viewBox="0 0 16 16" version="1.1" xmlns="http://www.w3.org/2000/svg" xmlns:xlink="http://www.w3.org/1999/xlink">
    <title>delete</title>
    <g id="管理后台" stroke="none" stroke-width="1" fill="none" fill-rule="evenodd">
        <g id="素材库/3.2弹窗错误提醒" transform="translate(-848.000000, -438.000000)">
            <g id="添加分类备份" transform="translate(784.000000, 120.000000)">
                <g id="编组-3备份-2" transform="translate(20.000000, 235.000000)">
                    <g id="编组-6" transform="translate(0.000000, 28.000000)">
                        <g id="delete" transform="translate(44.000000, 55.000000)">
                            <rect id="矩形" stroke="#979797" fill="#D8D8D8" opacity="0" x="0.5" y="0.5" width="15" height="15"></rect>
                            <path d="M10.375,1 C10.9272847,1 11.375,1.44771525 11.375,2 L11.375,3.25 L13.2342918,3.25 C13.2670418,3.25 13.298321,3.25629737 13.3269846,3.26774728 C13.8124989,3.35605545 14.1895789,3.7557503 14.2433987,4.25241886 L14.25,4.375 L13.438,4.375 L12.9322645,14.0608626 C12.9000895,14.5885315 12.4627673,15 11.9341183,15 L4.06588168,15 C3.53723271,15 3.09991046,14.5885315 3.06773552,14.0608626 L2.561,4.375 L1.75,4.375 C1.75,3.82259922 2.14813634,3.36318817 2.67311061,3.26806527 C2.69697686,3.25816197 2.72308395,3.25213472 2.75049258,3.25046346 L4.625,3.25 L4.625,2 C4.625,1.44771525 5.07271525,1 5.625,1 L10.375,1 Z M12.304,4.375 L3.695625,4.375 L4.1835,13.875 L11.816375,13.875 L12.304,4.375 Z M5.875,6.625 C6.15114237,6.625 6.375,6.84885763 6.375,7.125 L6.375,11.125 C6.375,11.4011424 6.15114237,11.625 5.875,11.625 C5.59885763,11.625 5.375,11.4011424 5.375,11.125 L5.375,7.125 C5.375,6.84885763 5.59885763,6.625 5.875,6.625 Z M8,6.625 C8.27614237,6.625 8.5,6.84885763 8.5,7.125 L8.5,11.125 C8.5,11.4011424 8.27614237,11.625 8,11.625 C7.72385763,11.625 7.5,11.4011424 7.5,11.125 L7.5,7.125 C7.5,6.84885763 7.72385763,6.625 8,6.625 Z M10.125,6.625 C10.4011424,6.625 10.625,6.84885763 10.625,7.125 L10.625,11.125 C10.625,11.4011424 10.4011424,11.625 10.125,11.625 C9.84885763,11.625 9.625,11.4011424 9.625,11.125 L9.625,7.125 C9.625,6.84885763 9.84885763,6.625 10.125,6.625 Z M10.25,2.125 L5.75,2.125 L5.75,3.25 L10.25,3.25 L10.25,2.125 Z" id="形状结合" fill="#FFFFFF"></path>
                        </g>
                    </g>
                </g>
            </g>
        </g>
    </g>
</svg>