<?xml version="1.0" encoding="UTF-8"?>
<svg width="16px" height="16px" viewBox="0 0 16 16" version="1.1" xmlns="http://www.w3.org/2000/svg" xmlns:xlink="http://www.w3.org/1999/xlink">
    <title>delete-fill</title>
    <g id="管理后台" stroke="none" stroke-width="1" fill="none" fill-rule="evenodd">
        <g id="素材库/1.1列表" transform="translate(-1353.000000, -226.000000)">
            <g id="内容区域" transform="translate(240.000000, 114.000000)">
                <g id="列表" transform="translate(16.000000, 76.000000)">
                    <g id="编辑按钮" transform="translate(1005.000000, 28.000000)">
                        <g id="Btn/主要-默认" transform="translate(84.000000, 0.000000)">
                            <g id="delete-fill" transform="translate(8.000000, 8.000000)">
                                <rect id="矩形" fill="#000000" fill-rule="nonzero" opacity="0" x="0" y="0" width="16" height="16"></rect>
                                <path d="M10.375,1 C10.9272847,1 11.375,1.44771525 11.375,2 L11.375,3.25 L13.75,3.25 C14.0261424,3.25 14.25,3.47385763 14.25,3.75 L14.25,4.375 L13.306375,4.375 L12.93225,14.060875 C12.9000693,14.5885309 12.4627613,15 11.934125,15 L4.065875,15 C3.5372387,15 3.09993073,14.5885309 3.06775,14.060875 L2.6935,4.375 L1.75,4.375 L1.75,3.75 C1.75,3.47385763 1.97385763,3.25 2.25,3.25 L4.625,3.25 L4.625,2 C4.625,1.44771525 5.07271525,1 5.625,1 L10.375,1 Z M6.25,6.75 L5.5,6.75 C5.43662815,6.75 5.38328951,6.79743839 5.375875,6.860375 L5.375,6.875 L5.375,11.625 C5.375,11.6883719 5.42243839,11.7417105 5.485375,11.749125 L5.5,11.75 L6.25,11.75 C6.31337185,11.75 6.36671049,11.7025616 6.374125,11.639625 L6.375,11.625 L6.375,6.875 C6.375,6.81162815 6.32756161,6.75828951 6.264625,6.750875 L6.25,6.75 Z M8.375,6.75 L7.625,6.75 C7.56162815,6.75 7.50828951,6.79743839 7.500875,6.860375 L7.5,6.875 L7.5,11.625 C7.5,11.6883719 7.54743839,11.7417105 7.610375,11.749125 L7.625,11.75 L8.375,11.75 C8.43837185,11.75 8.49171049,11.7025616 8.499125,11.639625 L8.5,11.625 L8.5,6.875 C8.5,6.81162815 8.45256161,6.75828951 8.389625,6.750875 L8.375,6.75 Z M10.5,6.75 L9.75,6.75 C9.68662815,6.75 9.63328951,6.79743839 9.625875,6.860375 L9.625,6.875 L9.625,11.625 C9.625,11.6883719 9.67243839,11.7417105 9.735375,11.749125 L9.75,11.75 L10.5,11.75 C10.5633719,11.75 10.6167105,11.7025616 10.624125,11.639625 L10.625,11.625 L10.625,6.875 C10.625,6.81162815 10.5775616,6.75828951 10.514625,6.750875 L10.5,6.75 Z M10.25,2.125 L5.75,2.125 L5.75,3.25 L10.25,3.25 L10.25,2.125 Z" id="形状" fill="#FFFFFF"></path>
                            </g>
                        </g>
                    </g>
                </g>
            </g>
        </g>
    </g>
</svg>