<?xml version="1.0" encoding="UTF-8"?>
<svg width="16px" height="16px" viewBox="0 0 16 16" version="1.1" xmlns="http://www.w3.org/2000/svg" xmlns:xlink="http://www.w3.org/1999/xlink">
    <title>edit-square</title>
    <g id="管理后台" stroke="none" stroke-width="1" fill="none" fill-rule="evenodd">
        <g id="素材库/3.2弹窗错误提醒" transform="translate(-824.000000, -438.000000)">
            <g id="添加分类备份" transform="translate(784.000000, 120.000000)">
                <g id="编组-3备份-2" transform="translate(20.000000, 235.000000)">
                    <g id="编组-6" transform="translate(0.000000, 28.000000)">
                        <g id="edit-square" transform="translate(20.000000, 55.000000)">
                            <rect id="矩形" fill="#000000" fill-rule="nonzero" opacity="0" x="0" y="0" width="16" height="16"></rect>
                            <path d="M7.875,1.75 C7.94403559,1.75 8,1.80596441 8,1.875 L8,2.75 C8,2.81903559 7.94403559,2.875 7.875,2.875 L2.875,2.875 L2.875,13.125 L13.125,13.125 L13.125,8.125 C13.125,8.05596441 13.1809644,8 13.25,8 L14.125,8 C14.1940356,8 14.25,8.05596441 14.25,8.125 L14.25,13.75 C14.25,14.0261424 14.0261424,14.25 13.75,14.25 L2.25,14.25 C1.97385763,14.25 1.75,14.0261424 1.75,13.75 L1.75,2.25 C1.75,1.97385763 1.97385763,1.75 2.25,1.75 L7.875,1.75 Z M12.453375,1.727 L14.22125,3.49475 C14.268156,3.541637 14.2945091,3.60524083 14.2945091,3.6715625 C14.2945091,3.73788417 14.268156,3.801488 14.22125,3.848375 L8.284,9.7855 C8.23712682,9.83238734 8.1735487,9.85875 8.10725,9.85875 L6.3395,9.85875 C6.20142881,9.85875 6.0895,9.74682119 6.0895,9.60875 L6.0895,7.841 C6.0895,7.7747013 6.11586266,7.71112318 6.16275,7.66425 L12.099875,1.727 C12.1975,1.62940452 12.35575,1.62940452 12.453375,1.727 Z M12.276625,2.9645 L7.0895,8.151625 L7.0895,8.85875 L7.796625,8.85875 L12.98375,3.671625 L12.276625,2.9645 L12.276625,2.9645 Z" id="形状" fill="#FFFFFF"></path>
                        </g>
                    </g>
                </g>
            </g>
        </g>
    </g>
</svg>