<?xml version="1.0" encoding="UTF-8"?>
<svg width="16px" height="16px" viewBox="0 0 16 16" version="1.1" xmlns="http://www.w3.org/2000/svg" xmlns:xlink="http://www.w3.org/1999/xlink">
    <title>eye-fill</title>
    <g id="管理后台" stroke="none" stroke-width="1" fill="none" fill-rule="evenodd">
        <g id="素材库/1.1列表" transform="translate(-1311.000000, -226.000000)">
            <g id="内容区域" transform="translate(240.000000, 114.000000)">
                <g id="列表" transform="translate(16.000000, 76.000000)">
                    <g id="编辑按钮" transform="translate(1005.000000, 28.000000)">
                        <g id="Btn/主要-默认备份-2" transform="translate(42.000000, 0.000000)">
                            <g id="eye-fill" transform="translate(8.000000, 8.000000)">
                                <rect id="矩形" fill="#000000" fill-rule="nonzero" opacity="0" x="0" y="0" width="16" height="16"></rect>
                                <path d="M8,3 C10.588,3 12.9425,4.513875 15.0635,7.54175 L15.15475,7.673375 L15.185625,7.718625 C15.2954807,7.88002935 15.3013384,8.09061337 15.200625,8.257875 L15.185625,8.28125 L15.125,8.36975 C12.988125,11.456625 10.613125,13 8,13 C5.414375,13 3.061875,11.488875 0.9425,8.466625 L0.87825,8.374625 C0.859875,8.348 0.838625,8.317 0.814375,8.28125 C0.70457245,8.11987446 0.69871523,7.90935621 0.799375,7.742125 L0.814375,7.718625 L0.875125,7.629875 C3.012,4.5435 5.387,3 8,3 Z M8,5.125 C6.412125,5.125 5.125,6.412125 5.125,8 C5.125,9.587875 6.412125,10.875 8,10.875 C9.587875,10.875 10.875,9.587875 10.875,8 C10.875,6.412125 9.587875,5.125 8,5.125 Z M8,6.25 C8.9665,6.25 9.75,7.0335 9.75,8 C9.75,8.9665 8.9665,9.75 8,9.75 C7.0335,9.75 6.25,8.9665 6.25,8 C6.25,7.0335 7.0335,6.25 8,6.25 Z" id="形状" fill="#FFFFFF"></path>
                            </g>
                        </g>
                    </g>
                </g>
            </g>
        </g>
    </g>
</svg>