<?xml version="1.0" encoding="UTF-8"?>
<svg width="128px" height="128px" viewBox="0 0 128 128" version="1.1" xmlns="http://www.w3.org/2000/svg" xmlns:xlink="http://www.w3.org/1999/xlink">
    <title>Icon/help-circle</title>
    <g id="Icon/help-circle" stroke="none" stroke-width="1" fill="none" fill-rule="evenodd">
        <g id="help-circle">
            <rect id="矩形" stroke="#979797" fill="#D8D8D8" opacity="0" x="0.5" y="0.5" width="127" height="127"></rect>
            <path d="M64,8 C94.927946,8 120,33.072054 120,64 C120,94.927946 94.927946,120 64,120 C33.072054,120 8,94.927946 8,64 C8,33.072054 33.072054,8 64,8 Z M64,17.5 C38.3187591,17.5 17.5,38.3187591 17.5,64 C17.5,89.6812409 38.3187591,110.5 64,110.5 C89.6812409,110.5 110.5,89.6812409 110.5,64 C110.5,38.3187591 89.6812409,17.5 64,17.5 Z M77.95,39.0875 C74.2,35.8 69.25,34 64,34 C58.75,34 53.8,35.8125 50.05,39.0875 C46.15,42.5 44,47.0875 44,52 L44,52.95 C44,53.5 44.45,53.95 45,53.95 L51,53.95 C51.55,53.95 52,53.5 52,52.95 L52,52 C52,46.4875 57.3875,42 64,42 C70.6125,42 76,46.4875 76,52 C76,55.8875 73.25,59.45 68.9875,61.0875 C66.3375,62.1 64.0875,63.875 62.475,66.2 C60.8375,68.575 59.9875,71.425 59.9875,74.3125 L59.9875,77 C59.9875,77.55 60.4375,78 60.9875,78 L66.9875,78 C67.5375,78 67.9875,77.55 67.9875,77 L67.9875,74.1625 C67.9875,71.7 69.5375,69.45 71.85,68.5625 C79.225,65.725 83.9875542,59.225 83.9875542,52 C84,47.0875 81.85,42.5 77.95,39.0875 Z M59,91 C59,93.7614237 61.2385763,96 64,96 C66.7614237,96 69,93.7614237 69,91 C69,88.2385763 66.7614237,86 64,86 C61.2385763,86 59,88.2385763 59,91 Z" id="形状结合" fill="#C8C9CC"></path>
        </g>
    </g>
</svg>