<?xml version="1.0" encoding="UTF-8"?>
<svg width="128px" height="128px" viewBox="0 0 128 128" version="1.1" xmlns="http://www.w3.org/2000/svg" xmlns:xlink="http://www.w3.org/1999/xlink">
    <title>Icon/image</title>
    <g id="Icon/image" stroke="none" stroke-width="1" fill="none" fill-rule="evenodd">
        <g id="image">
            <rect id="矩形" fill="#000000" fill-rule="nonzero" opacity="0" x="0" y="0" width="128" height="128"></rect>
            <path d="M116,20 L12,20 C9.7875,20 8,21.7875 8,24 L8,104 C8,106.2125 9.7875,108 12,108 L116,108 C118.2125,108 120,106.2125 120,104 L120,24 C120,21.7875 118.2125,20 116,20 Z M111,99 L17,99 L17,94.0125 L34.3125,73.475 L53.075,95.725 L82.2625,61.125 L111,95.2 L111,99 Z M111,82.775 L83.025,49.6 C82.625,49.125 81.9,49.125 81.5,49.6 L53.075,83.3 L35.075,61.9625 C34.675,61.4875 33.95,61.4875 33.55,61.9625 L17,81.5875 L17,29 L111,29 L111,82.775 Z M38,57 C44.075,57 49,52.075 49,46 C49,39.925 44.075,35 38,35 C31.925,35 27,39.925 27,46 C27,52.075 31.925,57 38,57 Z M38,42.5 C39.9375,42.5 41.5,44.0625 41.5,46 C41.5,47.9375 39.9375,49.5 38,49.5 C36.0625,49.5 34.5,47.9375 34.5,46 C34.5,44.0625 36.0625,42.5 38,42.5 Z" id="形状" fill="#DCDEE0"></path>
        </g>
    </g>
</svg>