<?xml version="1.0" encoding="UTF-8"?>
<svg width="16px" height="16px" viewBox="0 0 16 16" version="1.1" xmlns="http://www.w3.org/2000/svg" xmlns:xlink="http://www.w3.org/1999/xlink">
    <title>info-circle-fill</title>
    <g id="管理后台" stroke="none" stroke-width="1" fill="none" fill-rule="evenodd">
        <g id="素材库/5.2删除成功" transform="translate(-645.000000, -54.000000)">
            <g id="5.反馈/2.全局提示/1.成功" transform="translate(629.000000, 41.000000)">
                <g id="check-circle-fill" transform="translate(16.000000, 13.000000)">
                    <rect id="矩形" fill="#000000" fill-rule="nonzero" opacity="0" x="0" y="0" width="16" height="16"></rect>
                    <path d="M8,1 C11.8659932,1 15,4.13400675 15,8 C15,11.8659932 11.8659932,15 8,15 C4.13400675,15 1,11.8659932 1,8 C1,4.13400675 4.13400675,1 8,1 Z M11.4071699,5.49111652 C11.3095377,5.39348801 11.1512479,5.39348719 11.0536147,5.49111468 L11.0536147,5.49111468 L6.97110569,9.63163821 L4.9375,7.625 C4.83986893,7.52736893 4.68157768,7.52736893 4.58394661,7.625 L4.58394661,7.625 L4.05361652,8.15533009 C3.95598545,8.25296116 3.95598545,8.4112524 4.05361652,8.50888348 L4.05361652,8.50888348 L6.61764069,11.0459402 C6.81290283,11.2412023 7.12948532,11.2412023 7.32474747,11.0459402 L7.32474747,11.0459402 L11.9375,6.375 C12.0351311,6.27736893 12.0351311,6.11907768 11.9375,6.02144661 L11.9375,6.02144661 Z" id="形状结合" fill="#19BE6B"></path>
                </g>
            </g>
        </g>
    </g>
</svg>