<?xml version="1.0" encoding="UTF-8"?>
<svg width="16px" height="16px" viewBox="0 0 16 16" version="1.1" xmlns="http://www.w3.org/2000/svg" xmlns:xlink="http://www.w3.org/1999/xlink">
    <title>Icon/lock-fill</title>
    <g id="Icon/lock-fill" stroke="none" stroke-width="1" fill="none" fill-rule="evenodd">
        <g id="lock-fill" fill-rule="nonzero">
            <rect id="矩形" fill="#000000" opacity="0" x="0" y="0" width="16" height="16"></rect>
            <path d="M9.9375,1.75 C11.029,1.75 11.91625,2.624125 11.937125,3.710625 L11.9375,3.75 L11.9375,7.25 L12.9999998,7.25 C13.2665266,7.24974591 13.4863022,7.45879411 13.499375,7.725 L13.4999998,7.75 L13.4999998,13.75 C13.5002541,14.0165266 13.2912059,14.2363022 13.025,14.249375 L12.9999998,14.25 L2.99999977,14.25 C2.73347343,14.2502541 2.51369776,14.0412059 2.500625,13.775 L2.49999977,13.75 L2.49999977,7.75 C2.49974591,7.48347343 2.70879411,7.26369776 2.975,7.250625 L2.99999977,7.25 L4.0625,7.25 L4.0625,3.75 C4.0625,2.6585 4.936625,1.77125 6.023125,1.750375 L6.0625,1.75 L9.9375,1.75 Z M8,9.375 C7.516875,9.375 7.12499359,9.7745 7.12499359,10.266875 C7.12392008,10.5527688 7.25939463,10.8219995 7.489625,10.9915 L7.489625,11.976375 C7.489625,12.058125 7.55525,12.125 7.635375,12.125 L8.364625,12.125 C8.44475,12.125 8.510375,12.058125 8.510375,11.97625 L8.510375,10.9915 C8.74060537,10.8219995 8.87607992,10.5527688 8.87500641,10.266875 C8.87500641,9.774375 8.483125,9.375 8,9.375 Z M9.9375,2.875 L6.0625,2.875 C5.59105354,2.87531728 5.20448875,3.24884187 5.188,3.72 L5.1875,3.75 L5.1875,7.25 L10.8125,7.25 L10.8125,3.75 C10.8121827,3.27855354 10.4386581,2.89198875 9.9675,2.8755 L9.9375,2.875 Z" id="形状" fill="#2F7DCD"></path>
        </g>
    </g>
</svg>