<?xml version="1.0" encoding="UTF-8"?>
<svg width="16px" height="16px" viewBox="0 0 16 16" version="1.1" xmlns="http://www.w3.org/2000/svg" xmlns:xlink="http://www.w3.org/1999/xlink">
    <title>Icon/login</title>
    <g id="Icon/login" stroke="none" stroke-width="1" fill="none" fill-rule="evenodd">
        <g id="login">
            <rect id="矩形" fill="#000000" fill-rule="nonzero" opacity="0" x="0" y="0" width="16" height="16"></rect>
            <path d="M8.0105,1.28122635 C5.62775,1.275 3.530875,2.507875 2.332375,4.37025 C2.30778358,4.40862483 2.30605301,4.45734953 2.32785995,4.49737231 C2.3496669,4.53739508 2.3915471,4.56235787 2.437125,4.5625 L3.5355,4.5625 C3.6105,4.5625 3.680875,4.529625 3.72775,4.471875 C3.83778472,4.338342 3.95460527,4.21054867 4.07775,4.089 C4.587125,3.58125 5.17925,3.18125 5.838625,2.903125 C6.52043153,2.6151492 7.25324769,2.46742115 7.993375,2.46875 C8.74175,2.46875 9.46675,2.614125 10.148,2.903125 C10.807375,3.18125 11.399625,3.58125 11.909,4.089 C12.414764,4.59267066 12.8180432,5.18965122 13.0965,5.846875 C13.3855,6.528125 13.530875,7.251625 13.530875,8 C13.532194,8.73960096 13.384462,9.47188407 13.0965,10.153125 C12.8186132,10.8106581 12.4152637,11.4077427 11.909,11.911 C11.399625,12.41875 10.807375,12.81875 10.148,13.096875 C9.46623223,13.3848343 8.73346023,13.5325621 7.993375,13.53125 C7.25324769,13.5325789 6.52043153,13.3848508 5.838625,13.096875 C5.17925,12.81875 4.587125,12.41875 4.07775,11.910875 C3.95578616,11.7882385 3.83901698,11.6605431 3.72775,11.528125 C3.68046979,11.4706532 3.60992052,11.4373969 3.5355,11.4375 L2.437125,11.4375 C2.338625,11.4375 2.27775,11.546875 2.332375,11.629625 C3.52925,13.4875 5.61675,14.71875 7.993375,14.71875 C11.684,14.71875 14.680875,11.748375 14.718375,8.06875 C14.755875,4.32975 11.75425,1.290625 8.0105,1.28122635 Z M6.03125,9.75 L6.03125,8.5625 L1.125,8.5625 C1.05625,8.5625 1,8.50625 1,8.4375 L1,7.5625 C1,7.49375 1.05625,7.4375 1.125,7.4375 L6.03125,7.4375 L6.03125,6.25 C6.03125,6.145375 6.153125,6.085875 6.234375,6.1515 L8.4515,7.9015 C8.48181703,7.92516426 8.49953865,7.96147818 8.49953865,7.9999375 C8.49953865,8.03839682 8.48181703,8.07471074 8.4515,8.098375 L6.234375,9.848375 C6.153125,9.9125 6.03125,9.854625 6.03125,9.75 Z" id="形状" fill="#323233"></path>
        </g>
    </g>
</svg>