<?xml version="1.0" encoding="UTF-8"?>
<svg width="16px" height="16px" viewBox="0 0 16 16" version="1.1" xmlns="http://www.w3.org/2000/svg" xmlns:xlink="http://www.w3.org/1999/xlink">
    <title>logout</title>
    <g id="logout" stroke="none" stroke-width="1" fill="none" fill-rule="evenodd">
        <g>
            <rect id="矩形" fill="#000000" fill-rule="nonzero" opacity="0" x="0" y="0" width="16" height="16"></rect>
            <path d="M13.5625,11.4375 L12.464125,11.4375 C12.389125,11.4375 12.31875,11.470375 12.271875,11.528125 C12.1618403,11.661658 12.0450197,11.7894513 11.921875,11.911 C11.4125,12.41875 10.82025,12.81875 10.160875,13.096875 C9.47910723,13.3848343 8.74633523,13.5325621 8.00625,13.53125 C7.26616477,13.5325621 6.53339277,13.3848343 5.851625,13.096875 C5.192125,12.81875 4.6,12.41875 4.090625,11.910875 C3.5848744,11.4072413 3.18159595,10.8103042 2.903125,10.153125 C2.614,9.471875 2.46875,8.7485 2.46875,8 C2.46743099,7.26039904 2.61516299,6.52811593 2.903125,5.846875 C3.18101181,5.18934187 3.58436126,4.59225731 4.090625,4.089 C4.6,3.58125 5.19225,3.18125 5.8515,2.903125 C6.53330653,2.6151492 7.26612269,2.46742115 8.00625,2.46875 C8.754625,2.46875 9.47975,2.614125 10.160875,2.903125 C10.82025,3.18125 11.4125,3.58125 11.921875,4.089 C12.0438415,4.21167725 12.1606107,4.33941443 12.271875,4.471875 C12.31875,4.529625 12.390625,4.5625 12.464125,4.5625 L13.5625,4.5625 C13.660875,4.5625 13.721875,4.453125 13.66725,4.37025 C12.46875,2.507875 10.371875,1.275 7.989125,1.28122635 C4.245375,1.290625 1.24375,4.32975 1.28125,8.06875 C1.31875,11.7485 4.315625,14.71875 8.00625,14.71875 C10.382875,14.71875 12.470375,13.4875 13.66725,11.629625 C13.6917739,11.5912554 13.6934672,11.5425784 13.6716689,11.5025975 C13.6498705,11.4626165 13.608037,11.4376711 13.5625,11.4375 Z M14.9515,7.9015 L12.734375,6.1515 C12.696702,6.12146456 12.6451302,6.115728 12.6017777,6.13675061 C12.5584253,6.15777322 12.5309945,6.20181991 12.53125,6.25 L12.53125,7.4375 L7.625,7.4375 C7.55625,7.4375 7.5,7.49375 7.5,7.5625 L7.5,8.4375 C7.5,8.50625 7.55625,8.5625 7.625,8.5625 L12.53125,8.5625 L12.53125,9.75 C12.53125,9.85475 12.653125,9.914125 12.734375,9.848375 L14.9515,8.098375 C14.981817,8.07471074 14.9995387,8.03839682 14.9995387,7.9999375 C14.9995387,7.96147818 14.981817,7.92516426 14.9515,7.9015 L14.9515,7.9015 Z" id="形状" fill="#969799"></path>
        </g>
    </g>
</svg>