<?xml version="1.0" encoding="UTF-8"?>
<svg width="16px" height="16px" viewBox="0 0 16 16" version="1.1" xmlns="http://www.w3.org/2000/svg" xmlns:xlink="http://www.w3.org/1999/xlink">
    <title>Icon/mail-fill</title>
    <g id="Icon/mail-fill" stroke="none" stroke-width="1" fill="none" fill-rule="evenodd">
        <g id="mail-fill">
            <rect id="矩形" fill="#000000" fill-rule="nonzero" opacity="0" x="0" y="0" width="16" height="16"></rect>
            <path d="M14.5,2.5 L1.5,2.5 C1.223375,2.5 1,2.7235 1,3 L1,13 C1,13.276625 1.223375,13.5 1.5,13.5 L14.5,13.5 C14.776625,13.5 15,13.276625 15,13 L15,3 C15,2.7235 14.776625,2.5 14.5,2.5 Z M13.2375,4.2015 L8.30775,8.0375 C8.18620127,8.13279483 8.01529873,8.13279483 7.89375,8.0375 L2.9625,4.2015 C2.92444103,4.17207353 2.90930513,4.12170328 2.92483991,4.07617227 C2.94037468,4.03064126 2.98314177,4 3.03125,4 L13.16875,4 C13.2168582,4 13.2596253,4.03064126 13.2751601,4.07617227 C13.2906949,4.12170328 13.275559,4.17207353 13.2375,4.2015 L13.2375,4.2015 Z" id="形状" fill="#2F7DCD"></path>
        </g>
    </g>
</svg>