<?xml version="1.0" encoding="UTF-8"?>
<svg width="128px" height="128px" viewBox="0 0 128 128" version="1.1" xmlns="http://www.w3.org/2000/svg" xmlns:xlink="http://www.w3.org/1999/xlink">
    <title>Icon/panel</title>
    <g id="Icon/panel" stroke="none" stroke-width="1" fill="none" fill-rule="evenodd">
        <g id="panel">
            <rect id="矩形" stroke="#979797" fill="#D8D8D8" opacity="0" x="0.5" y="0.5" width="127" height="127"></rect>
            <path d="M108,58 C111.313708,58 114,60.6862915 114,64 L114,108 C114,111.313708 111.313708,114 108,114 L76,114 C72.6862915,114 70,111.313708 70,108 L70,64 C70,60.6862915 72.6862915,58 76,58 L108,58 Z M52,82 C55.3137085,82 58,84.6862915 58,88 L58,108 C58,111.313708 55.3137085,114 52,114 L20,114 C16.6862915,114 14,111.313708 14,108 L14,88 C14,84.6862915 16.6862915,82 20,82 L52,82 Z M105,67 L79,67 L79,105 L105,105 L105,67 Z M49,91 L23,91 L23,105 L49,105 L49,91 Z M52,14 C55.3137085,14 58,16.6862915 58,20 L58,64 C58,67.3137085 55.3137085,70 52,70 L20,70 C16.6862915,70 14,67.3137085 14,64 L14,20 C14,16.6862915 16.6862915,14 20,14 L52,14 Z M49,23 L23,23 L23,61 L49,61 L49,23 Z M108,14 C111.313708,14 114,16.6862915 114,20 L114,40 C114,43.3137085 111.313708,46 108,46 L76,46 C72.6862915,46 70,43.3137085 70,40 L70,20 C70,16.6862915 72.6862915,14 76,14 L108,14 Z M105,23 L79,23 L79,37 L105,37 L105,23 Z" id="形状结合" fill="#FFFFFF"></path>
        </g>
    </g>
</svg>