<?xml version="1.0" encoding="UTF-8"?>
<svg width="14px" height="14px" viewBox="0 0 14 14" version="1.1" xmlns="http://www.w3.org/2000/svg" xmlns:xlink="http://www.w3.org/1999/xlink">
    <title>Icon/person</title>
    <g id="Icon/person" stroke="none" stroke-width="1" fill="none" fill-rule="evenodd">
        <g id="person">
            <rect id="矩形" fill="#000000" fill-rule="nonzero" opacity="0" x="0" y="0" width="14" height="14"></rect>
            <path d="M11.3254531,10.0534219 L9.0265,9.09639062 C9.0265,9.09639062 8.575875,8.9140625 8.44057813,8.73173437 C8.35034375,8.640625 8.35034375,8.3671875 8.44057813,8.00264063 C8.53070313,7.68359375 9.70276563,6.27079688 9.70276563,5.04032813 C9.70265625,3.08076563 8.48553125,1.53125 6.99803125,1.53125 C5.51053125,1.53125 4.29340625,3.12626562 4.29340625,5.04032813 C4.29340625,6.22529687 5.33017188,7.68359375 5.46535938,7.95703125 C5.60065625,8.23046875 5.55559375,8.59501563 5.46535938,8.73173437 C5.33017188,8.9140625 4.74414062,9.09639062 4.74414062,9.09639062 L2.71567187,10.0534219 C2.21998438,10.2356406 1.859375,10.7370156 1.859375,11.2382812 L1.859375,11.5117188 C1.859375,12.1042031 2.31010938,12.46875 2.85107813,12.46875 L11.1450938,12.46875 C11.6860625,12.46875 12.1367969,12.1042031 12.1367969,11.5117188 L12.1367969,11.2382812 C12.1818594,10.7370156 11.82125,10.2356406 11.3254531,10.0534219 Z" id="路径" fill="#2F7DCD"></path>
        </g>
    </g>
</svg>