<?xml version="1.0" encoding="UTF-8"?>
<svg width="128px" height="128px" viewBox="0 0 128 128" version="1.1" xmlns="http://www.w3.org/2000/svg" xmlns:xlink="http://www.w3.org/1999/xlink">
    <!-- Generator: Sketch 63 (92445) - https://sketch.com -->
    <title>save</title>
    <desc>Created with Sketch.</desc>
    <g id="save" stroke="none" stroke-width="1" fill="none" fill-rule="evenodd">
        <g fill-rule="nonzero">
            <rect id="矩形" fill="#000000" opacity="0" x="0" y="0" width="128" height="128"></rect>
            <path d="M98,14 C106.836556,14 114,21.163444 114,30 L114,110 C114,112.209139 112.209139,114 110,114 L18,114 C15.790861,114 14,112.209139 14,110 L14,30 C14,21.163444 21.163444,14 30,14 L98,14 Z M34,23 L30,23 C26.2145483,23 23.1309013,26.0047834 23.004059,29.7593502 L23,30 L23,105 L105,105 L105,30 C105,26.2145483 101.995217,23.1309013 98.2406498,23.004059 L98,23 L94,23 L94,58 C94,60.209139 92.209139,62 90,62 L38,62 C35.790861,62 34,60.209139 34,58 L34,23 Z M85,23 L43,23 L43,53 L85,53 L85,23 Z M76,30 C77.1045695,30 78,30.8954305 78,32 L78,44 C78,45.1045695 77.1045695,46 76,46 L68,46 C66.8954305,46 66,45.1045695 66,44 L66,32 C66,30.8954305 66.8954305,30 68,30 L76,30 Z" id="形状结合" fill="#646566"></path>
        </g>
    </g>
</svg>