<?xml version="1.0" encoding="UTF-8"?>
<svg width="128px" height="128px" viewBox="0 0 128 128" version="1.1" xmlns="http://www.w3.org/2000/svg" xmlns:xlink="http://www.w3.org/1999/xlink">
    <!-- Generator: Sketch 63 (92445) - https://sketch.com -->
    <title>send</title>
    <desc>Created with Sketch.</desc>
    <g id="send" stroke="none" stroke-width="1" fill="none" fill-rule="evenodd">
        <g>
            <rect id="矩形" stroke="#979797" fill="#D8D8D8" opacity="0" x="0.5" y="0.5" width="127" height="127"></rect>
            <path d="M113.970867,13.3358021 L98.4464322,104.577956 C98.2611575,105.666876 97.2282184,106.399425 96.1392983,106.214151 C96.000858,106.190596 95.8652836,106.152526 95.7348185,106.10057 L68.5375746,95.2697407 L52.263429,114.777083 C51.5558384,115.625251 50.2946467,115.739212 49.4464785,115.031621 C48.9909934,114.651629 48.7276846,114.089055 48.7276846,113.495877 L48.7276846,89.9684015 L96.9410505,30.8724193 L37.2881708,82.490723 L12.235063,72.1119001 C11.2145952,71.689148 10.730051,70.5191872 11.1528031,69.4987194 C11.3210816,69.0925173 11.6185259,68.7530872 11.9991212,68.5329393 L110.997801,11.2690919 C111.953938,10.7160328 113.177384,11.0427925 113.730443,11.9989303 C113.964089,12.402861 114.049139,12.875776 113.970867,13.3358021 Z" id="路径" fill="#fff" fill-rule="nonzero"></path>
        </g>
    </g>
</svg>