<?xml version="1.0" encoding="UTF-8"?>
<svg width="16px" height="16px" viewBox="0 0 16 16" version="1.1" xmlns="http://www.w3.org/2000/svg" xmlns:xlink="http://www.w3.org/1999/xlink">
    <title>setting-fill</title>
    <g id="管理后台" stroke="none" stroke-width="1" fill="none" fill-rule="evenodd">
        <g id="素材库/1.1列表" transform="translate(-1269.000000, -226.000000)" fill-rule="nonzero">
            <g id="内容区域" transform="translate(240.000000, 114.000000)">
                <g id="列表" transform="translate(16.000000, 76.000000)">
                    <g id="编辑按钮" transform="translate(1005.000000, 28.000000)">
                        <g id="setting-fill" transform="translate(8.000000, 8.000000)">
                            <rect id="矩形" fill="#000000" opacity="0" x="0" y="0" width="16" height="16"></rect>
                            <path d="M9.50425,1 C9.78039237,1 10.00425,1.22385763 10.00425,1.5 L10.00425,2.875 C10.5226684,3.07763768 11.0072836,3.35787831 11.4415,3.706125 L12.633375,3.018 C12.8725152,2.87993533 13.1782998,2.96186592 13.316375,3.201 L14.816375,5.799 C14.9544397,6.03814015 14.8725091,6.34392481 14.633375,6.482 L13.442125,7.169875 C13.483,7.440625 13.50425,7.717875 13.50425,8 C13.50425,8.282125 13.483,8.559375 13.442,8.83 L14.633375,9.518 C14.8725091,9.65607519 14.9544397,9.96185985 14.816375,10.201 L13.316375,12.799 C13.1782998,13.0381341 12.8725152,13.1200647 12.633375,12.982 L11.4415,12.293875 C11.0072918,12.6421658 10.5226761,12.9224488 10.00425,13.125125 L10.00425,14.5 C10.00425,14.7761424 9.78039237,15 9.50425,15 L6.50425,15 C6.22810763,15 6.00425,14.7761424 6.00425,14.5 L6.00425,13.125 C5.48583164,12.9223623 5.00121639,12.6421217 4.567,12.293875 L3.375125,12.982 C3.13598485,13.1200647 2.83020019,13.0381341 2.692125,12.799 L1.192125,10.201 C1.05403936,9.96189258 1.13591128,9.65611803 1.375,9.518 L2.56625,8.830125 C2.52484866,8.55535853 2.50416536,8.27786802 2.504375,8 C2.504375,7.717875 2.525625,7.440625 2.566625,7.17 L1.375,6.481875 C1.13586592,6.34379981 1.05393533,6.03801515 1.192,5.798875 L2.692,3.200875 C2.83011803,2.96178628 3.13589258,2.87991436 3.375,3.018 L4.566875,3.706125 C5.00104496,3.35784515 5.48561775,3.07756255 6.004,2.874875 L6.00425,1.5 C6.00425,1.22385763 6.22810763,1 6.50425,1 L9.50425,1 Z M8.00425,5.5 C6.6235,5.5 5.50425,6.61925 5.50425,8 C5.50425,9.38075 6.6235,10.5 8.00425,10.5 C9.385,10.5 10.50425,9.38075 10.50425,8 C10.50425,6.61925 9.385,5.5 8.00425,5.5 Z" id="形状" fill="#FFFFFF"></path>
                        </g>
                    </g>
                </g>
            </g>
        </g>
    </g>
</svg>