<?xml version="1.0" encoding="UTF-8"?>
<svg width="16px" height="16px" viewBox="0 0 16 16" version="1.1" xmlns="http://www.w3.org/2000/svg" xmlns:xlink="http://www.w3.org/1999/xlink">
    <title>task</title>
    <g id="管理后台" stroke="none" stroke-width="1" fill="none" fill-rule="evenodd">
        <g id="任务配置/任务列表" transform="translate(-20.000000, -121.000000)">
            <g id="一级下拉" transform="translate(0.000000, 104.000000)">
                <g id="file-list" transform="translate(20.000000, 17.000000)">
                    <rect id="矩形" fill="#000000" fill-rule="nonzero" opacity="0" x="0" y="0" width="16" height="16"></rect>
                    <path d="M13,1 L3,1 C2.7234375,1 2.5,1.2234375 2.5,1.5 L2.5,14.5 C2.5,14.7765625 2.7234375,15 3,15 L13,15 C13.2765625,15 13.5,14.7765625 13.5,14.5 L13.5,1.5 C13.5,1.22385763 13.2761424,1 13,1 Z M12.375,13.875 L3.625,13.875 L3.625,2.125 L12.375,2.125 L12.375,13.875 Z M11,7.5 L7.5,7.5 C7.43125,7.5 7.375,7.55625 7.375,7.625 L7.375,8.375 C7.375,8.44375 7.43125,8.5 7.5,8.5 L11,8.5 C11.06875,8.5 11.125,8.44375 11.125,8.375 L11.125,7.625 C11.125,7.55625 11.06875,7.5 11,7.5 Z M11,10.375 L7.5,10.375 C7.43125,10.375 7.375,10.43125 7.375,10.5 L7.375,11.25 C7.375,11.31875 7.43125,11.375 7.5,11.375 L11,11.375 C11.06875,11.375 11.125,11.31875 11.125,11.25 L11.125,10.5 C11.125,10.43125 11.06875,10.375 11,10.375 Z M7.375,4.75 L7.375,5.5 C7.375,5.56875 7.43125,5.625 7.5,5.625 L11,5.625 C11.06875,5.625 11.125,5.56875 11.125,5.5 L11.125,4.75 C11.125,4.68125 11.06875,4.625 11,4.625 L7.5,4.625 C7.43125,4.625 7.375,4.68125 7.375,4.75 Z M5.5,5.75 C5.84517797,5.75 6.125,5.47017797 6.125,5.125 C6.125,4.77982203 5.84517797,4.5 5.5,4.5 C5.15482203,4.5 4.875,4.77982203 4.875,5.125 C4.875,5.47017797 5.15482203,5.75 5.5,5.75 Z M5.5,8.625 C5.84517797,8.625 6.125,8.34517797 6.125,8 C6.125,7.65482203 5.84517797,7.375 5.5,7.375 C5.15482203,7.375 4.875,7.65482203 4.875,8 C4.875,8.34517797 5.15482203,8.625 5.5,8.625 Z M5.5,11.5 C5.84517797,11.5 6.125,11.220178 6.125,10.875 C6.125,10.529822 5.84517797,10.25 5.5,10.25 C5.15482203,10.25 4.875,10.529822 4.875,10.875 C4.875,11.220178 5.15482203,11.5 5.5,11.5 Z" id="形状" fill="#FFFFFF"></path>
                </g>
            </g>
        </g>
    </g>
</svg>